<?xml version="1.0" encoding="UTF-8"?>
<!DOCTYPE svg PUBLIC "-//W3C//DTD SVG 1.1//EN" "http://www.w3.org/Graphics/SVG/1.1/DTD/svg11.dtd">
<svg xmlns="http://www.w3.org/2000/svg" version="1.1" width="371px" height="306px" style="shape-rendering:geometricPrecision; text-rendering:geometricPrecision; image-rendering:optimizeQuality; fill-rule:evenodd; clip-rule:evenodd" xmlns:xlink="http://www.w3.org/1999/xlink">
<g><path style="opacity:1" fill="#8ed3e3" d="M 239.5,42.5 C 230.46,42.2518 221.46,42.5851 212.5,43.5C 203.833,43.5 195.167,43.5 186.5,43.5C 176.013,42.5056 165.346,42.1722 154.5,42.5C 138.464,41.8489 122.798,42.5156 107.5,44.5C 100.029,43.4937 92.6954,42.4937 85.5,41.5C 132.832,40.7804 180.166,40.6137 227.5,41C 231.688,41.1762 235.688,41.6762 239.5,42.5 Z"/></g>
<g><path style="opacity:1" fill="#4ac4e3" d="M 154.5,42.5 C 165.346,42.1722 176.013,42.5056 186.5,43.5C 184.167,43.5 181.833,43.5 179.5,43.5C 179.5,46.1667 179.5,48.8333 179.5,51.5C 181.993,51.6709 183.826,50.6709 185,48.5C 185.424,50.6145 186.591,51.4479 188.5,51C 186.993,50.1627 186.493,48.9961 187,47.5C 188.833,49.3333 190.667,51.1667 192.5,53C 189.994,55.549 190.16,58.049 193,60.5C 193.497,58.1902 193.663,55.8568 193.5,53.5C 194.552,53.3505 195.552,53.5172 196.5,54C 196.996,55.9964 197.996,57.6631 199.5,59C 202.707,59.4151 205.707,59.0818 208.5,58C 207.663,59.0113 207.33,60.1779 207.5,61.5C 203.149,62.515 198.815,62.6817 194.5,62C 197.744,62.97 200.91,64.1366 204,65.5C 206.398,62.7163 208.565,62.8829 210.5,66C 209.027,66.7096 208.36,67.8762 208.5,69.5C 211.119,69.7683 213.619,69.435 216,68.5C 218.35,70.6829 220.517,73.0163 222.5,75.5C 221.313,75.5536 219.98,75.8869 218.5,76.5C 218.863,77.1835 219.196,77.8501 219.5,78.5C 216.661,76.5797 213.661,74.9131 210.5,73.5C 207.422,70.9658 204.089,68.9658 200.5,67.5C 196.134,64.9884 191.467,62.9884 186.5,61.5C 185.22,60.0687 183.553,59.4021 181.5,59.5C 181.158,58.6618 180.492,58.3284 179.5,58.5C 179.38,57.4138 178.713,56.7472 177.5,56.5C 172.932,55.9536 168.599,54.9536 164.5,53.5C 162.492,51.9174 160.159,50.9174 157.5,50.5C 156.942,49.2101 155.942,48.3768 154.5,48C 156.863,47.4115 157.863,45.9115 157.5,43.5C 156.209,43.7373 155.209,43.404 154.5,42.5 Z"/></g>
<g><path style="opacity:1" fill="#69cbd7" d="M 239.5,42.5 C 243.764,42.3442 247.764,43.0109 251.5,44.5C 253.532,45.4782 255.198,46.9782 256.5,49C 258.5,49.3333 260.5,49.6667 262.5,50C 264.037,51.1096 264.703,52.6096 264.5,54.5C 268.099,54.7381 268.433,53.7381 265.5,51.5C 265.833,51.1667 266.167,50.8333 266.5,50.5C 268.51,52.2526 270.843,53.2526 273.5,53.5C 278.012,55.4975 281.845,58.4975 285,62.5C 289.205,67.5751 292.371,73.2417 294.5,79.5C 294.782,82.9097 295.449,86.243 296.5,89.5C 294.488,93.5917 293.988,97.925 295,102.5C 295.308,101.692 295.808,101.025 296.5,100.5C 297.429,101.689 297.762,103.022 297.5,104.5C 295.803,106.305 294.97,108.639 295,111.5C 294.503,109.19 294.337,106.857 294.5,104.5C 292.167,104.5 289.833,104.5 287.5,104.5C 287.5,102.167 287.5,99.8333 287.5,97.5C 282.99,97.9053 278.324,97.9053 273.5,97.5C 273.579,95.3337 274.246,93.3337 275.5,91.5C 275.167,90.8333 274.833,90.1667 274.5,89.5C 273.667,90.5 272.833,91.5 272,92.5C 271.883,88.2149 269.717,86.2149 265.5,86.5C 265.5,84.1667 265.5,81.8333 265.5,79.5C 263.856,79.2865 262.356,79.6198 261,80.5C 255.741,78.083 250.241,76.4163 244.5,75.5C 245.672,72.5343 246.506,69.5343 247,66.5C 244,65.1667 241,65.1667 238,66.5C 236.62,63.352 234.12,61.852 230.5,62C 228.077,60.1743 225.744,58.1743 223.5,56C 223.833,55.6667 224.167,55.3333 224.5,55C 223.027,54.2904 222.36,53.1238 222.5,51.5C 218.809,51.7143 215.809,50.381 213.5,47.5C 214.981,46.056 214.648,45.3894 212.5,45.5C 211.761,45.631 211.094,45.4643 210.5,45C 211.416,44.7216 212.082,44.2216 212.5,43.5C 221.46,42.5851 230.46,42.2518 239.5,42.5 Z"/></g>
<g><path style="opacity:0.999" fill="#6ccbd6" d="M 85.5,41.5 C 92.6954,42.4937 100.029,43.4937 107.5,44.5C 109.833,44.5 112.167,44.5 114.5,44.5C 114.953,45.4584 115.619,46.2917 116.5,47C 115.736,49.0693 115.236,51.236 115,53.5C 113.777,51.0147 112.277,50.848 110.5,53C 112.705,59.3247 111.038,64.3247 105.5,68C 107.107,69.049 107.773,70.549 107.5,72.5C 98.7086,62.9402 90.3753,52.9402 82.5,42.5C 83.325,41.6143 84.325,41.281 85.5,41.5 Z"/></g>
<g><path style="opacity:1" fill="#2ec2ea" d="M 154.5,42.5 C 155.209,43.404 156.209,43.7373 157.5,43.5C 157.863,45.9115 156.863,47.4115 154.5,48C 155.942,48.3768 156.942,49.2101 157.5,50.5C 154.15,50.335 150.817,50.5017 147.5,51C 146.833,51.6667 146.167,52.3333 145.5,53C 146.949,54.117 148.616,54.7837 150.5,55C 148.044,56.4865 145.878,58.3199 144,60.5C 143.69,63.5936 143.19,66.5936 142.5,69.5C 140.697,70.1368 139.364,71.3035 138.5,73C 137.552,73.4828 136.552,73.6495 135.5,73.5C 133.421,79.234 131.421,85.0674 129.5,91C 131.167,91.3333 132.833,91.6667 134.5,92C 132.406,93.3515 130.073,93.8515 127.5,93.5C 125.591,90.0813 123.258,87.0813 120.5,84.5C 120.435,84.0618 120.601,83.7284 121,83.5C 122.441,84.2598 123.941,84.9264 125.5,85.5C 127.651,83.2277 129.151,80.561 130,77.5C 130.333,77.8333 130.667,78.1667 131,78.5C 131.629,72.187 133.462,66.0203 136.5,60C 135.767,58.2341 135.433,56.4008 135.5,54.5C 138.166,54.9342 139.333,53.9342 139,51.5C 135.398,50.2758 131.898,48.9424 128.5,47.5C 124.089,45.8704 119.422,44.8704 114.5,44.5C 112.167,44.5 109.833,44.5 107.5,44.5C 122.798,42.5156 138.464,41.8489 154.5,42.5 Z"/></g>
<g><path style="opacity:1" fill="#8ed4de" d="M 251.5,44.5 C 259.807,45.3262 267.14,48.3262 273.5,53.5C 270.843,53.2526 268.51,52.2526 266.5,50.5C 266.167,50.8333 265.833,51.1667 265.5,51.5C 268.433,53.7381 268.099,54.7381 264.5,54.5C 264.703,52.6096 264.037,51.1096 262.5,50C 260.5,49.6667 258.5,49.3333 256.5,49C 255.198,46.9782 253.532,45.4782 251.5,44.5 Z"/></g>
<g><path style="opacity:1" fill="#5ac7dd" d="M 114.5,44.5 C 119.422,44.8704 124.089,45.8704 128.5,47.5C 128.5,48.8333 128.5,50.1667 128.5,51.5C 126.654,51.2222 125.32,51.8888 124.5,53.5C 126.549,58.3211 125.549,62.6544 121.5,66.5C 122.423,67.8363 122.923,69.1696 123,70.5C 120.118,71.3578 117.618,72.8578 115.5,75C 117.883,75.065 118.55,75.8983 117.5,77.5C 117.887,80.2383 118.887,82.5717 120.5,84.5C 123.258,87.0813 125.591,90.0813 127.5,93.5C 127.5,93.8333 127.5,94.1667 127.5,94.5C 124.944,93.4566 122.777,91.7899 121,89.5C 116.667,83.6705 112.167,78.0038 107.5,72.5C 107.773,70.549 107.107,69.049 105.5,68C 111.038,64.3247 112.705,59.3247 110.5,53C 112.277,50.848 113.777,51.0147 115,53.5C 115.236,51.236 115.736,49.0693 116.5,47C 115.619,46.2917 114.953,45.4584 114.5,44.5 Z"/></g>
<g><path style="opacity:1" fill="#3fc4e6" d="M 128.5,47.5 C 131.898,48.9424 135.398,50.2758 139,51.5C 139.333,53.9342 138.166,54.9342 135.5,54.5C 135.433,56.4008 135.767,58.2341 136.5,60C 133.462,66.0203 131.629,72.187 131,78.5C 130.667,78.1667 130.333,77.8333 130,77.5C 129.151,80.561 127.651,83.2277 125.5,85.5C 123.941,84.9264 122.441,84.2598 121,83.5C 120.601,83.7284 120.435,84.0618 120.5,84.5C 118.887,82.5717 117.887,80.2383 117.5,77.5C 118.55,75.8983 117.883,75.065 115.5,75C 117.618,72.8578 120.118,71.3578 123,70.5C 122.923,69.1696 122.423,67.8363 121.5,66.5C 125.549,62.6544 126.549,58.3211 124.5,53.5C 125.32,51.8888 126.654,51.2222 128.5,51.5C 128.5,50.1667 128.5,48.8333 128.5,47.5 Z"/></g>
<g><path style="opacity:1" fill="#26baed" d="M 157.5,50.5 C 160.159,50.9174 162.492,51.9174 164.5,53.5C 161.193,52.9492 157.86,52.6159 154.5,52.5C 150.038,66.0437 144.871,79.377 139,92.5C 138.005,93.0659 137.172,93.7326 136.5,94.5C 133.5,94.5 130.5,94.5 127.5,94.5C 127.5,94.1667 127.5,93.8333 127.5,93.5C 130.073,93.8515 132.406,93.3515 134.5,92C 132.833,91.6667 131.167,91.3333 129.5,91C 131.421,85.0674 133.421,79.234 135.5,73.5C 136.552,73.6495 137.552,73.4828 138.5,73C 139.364,71.3035 140.697,70.1368 142.5,69.5C 143.19,66.5936 143.69,63.5936 144,60.5C 145.878,58.3199 148.044,56.4865 150.5,55C 148.616,54.7837 146.949,54.117 145.5,53C 146.167,52.3333 146.833,51.6667 147.5,51C 150.817,50.5017 154.15,50.335 157.5,50.5 Z"/></g>
<g><path style="opacity:1" fill="#4c97d0" d="M 181.5,59.5 C 183.553,59.4021 185.22,60.0687 186.5,61.5C 184.219,65.4227 182.386,69.7561 181,74.5C 180,75.5 179,76.5 178,77.5C 177.288,82.3329 175.788,86.8329 173.5,91C 177.51,93.1728 181.843,94.0061 186.5,93.5C 199.674,93.7985 212.674,94.4652 225.5,95.5C 207.831,95.2815 190.164,94.9482 172.5,94.5C 166.654,93.8334 160.654,93.1668 154.5,92.5C 154.137,91.8165 153.804,91.1499 153.5,90.5C 157.5,90.5 161.5,90.5 165.5,90.5C 167.932,80.3633 171.432,70.6967 176,61.5C 177.444,59.8446 179.278,59.178 181.5,59.5 Z"/></g>
<g><path style="opacity:1" fill="#4273b7" d="M 200.5,67.5 C 204.089,68.9658 207.422,70.9658 210.5,73.5C 207.989,73.162 205.655,73.162 203.5,73.5C 204.527,76.0542 203.694,78.0542 201,79.5C 201.128,83.8595 199.628,87.5262 196.5,90.5C 207.262,92.455 218.096,93.7883 229,94.5C 230.376,94.3158 231.209,93.6491 231.5,92.5C 233.306,94.0894 234.639,96.0894 235.5,98.5C 235.043,99.2975 234.376,99.6309 233.5,99.5C 231.117,97.6418 228.45,96.3084 225.5,95.5C 212.674,94.4652 199.674,93.7985 186.5,93.5C 189.402,92.2187 190.902,89.8854 191,86.5C 192.676,85.9389 194.009,84.9389 195,83.5C 196.146,79.8978 196.979,76.2311 197.5,72.5C 197.351,70.6803 196.684,69.1803 195.5,68C 197.134,67.5065 198.801,67.3398 200.5,67.5 Z"/></g>
<g><path style="opacity:1" fill="#57c7dd" d="M 186.5,43.5 C 195.167,43.5 203.833,43.5 212.5,43.5C 212.082,44.2216 211.416,44.7216 210.5,45C 211.094,45.4643 211.761,45.631 212.5,45.5C 207.163,47.0403 206.163,49.707 209.5,53.5C 210.086,53.2907 210.586,52.9574 211,52.5C 212.11,54.0368 213.61,54.7035 215.5,54.5C 215.5,55.5 215.5,56.5 215.5,57.5C 219.931,56.5298 222.265,58.1965 222.5,62.5C 227.14,64.4749 231.807,66.4749 236.5,68.5C 236.33,69.8221 236.663,70.9887 237.5,72C 242.107,72.4386 244.44,74.9386 244.5,79.5C 245.552,79.3505 246.552,79.5172 247.5,80C 248.376,81.586 249.376,83.086 250.5,84.5C 254.444,86.0793 258.444,87.4126 262.5,88.5C 262.5,89.5 262.5,90.5 262.5,91.5C 265.511,93.5229 268.845,95.1896 272.5,96.5C 271.675,97.3857 270.675,97.719 269.5,97.5C 269.579,98.9305 269.246,100.264 268.5,101.5C 269.325,102.386 270.325,102.719 271.5,102.5C 271.281,103.675 271.614,104.675 272.5,105.5C 273.736,104.754 275.07,104.421 276.5,104.5C 276.5,106.167 276.5,107.833 276.5,109.5C 277.978,109.238 279.311,109.571 280.5,110.5C 282.638,111.744 284.638,113.244 286.5,115C 285.833,117 284.5,118.333 282.5,119C 285.827,120.163 287.827,118.997 288.5,115.5C 289.251,116.376 289.751,117.376 290,118.5C 293.466,116.65 295.299,117.65 295.5,121.5C 295.5,123.833 295.5,126.167 295.5,128.5C 293.767,134.305 290.767,139.305 286.5,143.5C 287.536,140.423 288.869,137.423 290.5,134.5C 288.487,130.105 287.487,125.438 287.5,120.5C 286.5,120.5 285.5,120.5 284.5,120.5C 284.649,121.552 284.483,122.552 284,123.5C 282.301,122.594 280.467,122.261 278.5,122.5C 278.112,120.315 277.112,118.482 275.5,117C 276.758,114.815 276.758,112.648 275.5,110.5C 273.379,111.134 271.046,111.134 268.5,110.5C 269.074,108.941 269.74,107.441 270.5,106C 267.381,104.595 264.048,104.095 260.5,104.5C 260.762,103.022 260.429,101.689 259.5,100.5C 257.339,99.9649 255.339,99.1316 253.5,98C 254.833,97 254.833,96 253.5,95C 250.628,93.5486 247.628,93.3819 244.5,94.5C 244.5,93.1667 244.5,91.8333 244.5,90.5C 243.167,90.5 241.833,90.5 240.5,90.5C 240.083,87.9208 240.75,85.7542 242.5,84C 240.246,82.349 237.912,82.1823 235.5,83.5C 230.584,80.6025 225.251,78.9359 219.5,78.5C 219.196,77.8501 218.863,77.1835 218.5,76.5C 219.98,75.8869 221.313,75.5536 222.5,75.5C 220.517,73.0163 218.35,70.6829 216,68.5C 213.619,69.435 211.119,69.7683 208.5,69.5C 208.36,67.8762 209.027,66.7096 210.5,66C 208.565,62.8829 206.398,62.7163 204,65.5C 200.91,64.1366 197.744,62.97 194.5,62C 198.815,62.6817 203.149,62.515 207.5,61.5C 207.33,60.1779 207.663,59.0113 208.5,58C 205.707,59.0818 202.707,59.4151 199.5,59C 197.996,57.6631 196.996,55.9964 196.5,54C 195.552,53.5172 194.552,53.3505 193.5,53.5C 193.663,55.8568 193.497,58.1902 193,60.5C 190.16,58.049 189.994,55.549 192.5,53C 190.667,51.1667 188.833,49.3333 187,47.5C 186.493,48.9961 186.993,50.1627 188.5,51C 186.591,51.4479 185.424,50.6145 185,48.5C 183.826,50.6709 181.993,51.6709 179.5,51.5C 179.5,48.8333 179.5,46.1667 179.5,43.5C 181.833,43.5 184.167,43.5 186.5,43.5 Z"/></g>
<g><path style="opacity:1" fill="#379bd5" d="M 179.5,58.5 C 180.492,58.3284 181.158,58.6618 181.5,59.5C 179.278,59.178 177.444,59.8446 176,61.5C 171.432,70.6967 167.932,80.3633 165.5,90.5C 161.5,90.5 157.5,90.5 153.5,90.5C 155.065,82.535 158.398,75.3683 163.5,69C 163.043,68.586 162.709,68.086 162.5,67.5C 164.347,64.7984 165.513,61.7984 166,58.5C 170.287,57.398 174.787,57.398 179.5,58.5 Z"/></g>
<g><path style="opacity:1" fill="#36abe0" d="M 164.5,53.5 C 168.599,54.9536 172.932,55.9536 177.5,56.5C 178.713,56.7472 179.38,57.4138 179.5,58.5C 174.787,57.398 170.287,57.398 166,58.5C 165.513,61.7984 164.347,64.7984 162.5,67.5C 162.709,68.086 163.043,68.586 163.5,69C 158.398,75.3683 155.065,82.535 153.5,90.5C 153.804,91.1499 154.137,91.8165 154.5,92.5C 160.654,93.1668 166.654,93.8334 172.5,94.5C 160.5,94.5 148.5,94.5 136.5,94.5C 137.172,93.7326 138.005,93.0659 139,92.5C 144.871,79.377 150.038,66.0437 154.5,52.5C 157.86,52.6159 161.193,52.9492 164.5,53.5 Z"/></g>
<g><path style="opacity:1" fill="#3e7ec1" d="M 186.5,61.5 C 191.467,62.9884 196.134,64.9884 200.5,67.5C 198.801,67.3398 197.134,67.5065 195.5,68C 196.684,69.1803 197.351,70.6803 197.5,72.5C 196.979,76.2311 196.146,79.8978 195,83.5C 194.009,84.9389 192.676,85.9389 191,86.5C 190.902,89.8854 189.402,92.2187 186.5,93.5C 181.843,94.0061 177.51,93.1728 173.5,91C 175.788,86.8329 177.288,82.3329 178,77.5C 179,76.5 180,75.5 181,74.5C 182.386,69.7561 184.219,65.4227 186.5,61.5 Z"/></g>
<g><path style="opacity:1" fill="#3d69b2" d="M 210.5,73.5 C 213.661,74.9131 216.661,76.5797 219.5,78.5C 223.874,82.8722 227.874,87.5389 231.5,92.5C 231.209,93.6491 230.376,94.3158 229,94.5C 218.096,93.7883 207.262,92.455 196.5,90.5C 199.628,87.5262 201.128,83.8595 201,79.5C 203.694,78.0542 204.527,76.0542 203.5,73.5C 205.655,73.162 207.989,73.162 210.5,73.5 Z"/></g>
<g><path style="opacity:0.992" fill="#84d1d8" d="M 294.5,79.5 C 298.069,88.0222 299.736,97.0222 299.5,106.5C 300.07,114.309 298.736,121.642 295.5,128.5C 295.5,126.167 295.5,123.833 295.5,121.5C 296.222,121.082 296.722,120.416 297,119.5C 297.499,114.511 297.666,109.511 297.5,104.5C 297.762,103.022 297.429,101.689 296.5,100.5C 295.808,101.025 295.308,101.692 295,102.5C 293.988,97.925 294.488,93.5917 296.5,89.5C 295.449,86.243 294.782,82.9097 294.5,79.5 Z"/></g>
<g><path style="opacity:1" fill="#5fc8db" d="M 212.5,45.5 C 214.648,45.3894 214.981,46.056 213.5,47.5C 215.809,50.381 218.809,51.7143 222.5,51.5C 222.36,53.1238 223.027,54.2904 224.5,55C 224.167,55.3333 223.833,55.6667 223.5,56C 225.744,58.1743 228.077,60.1743 230.5,62C 234.12,61.852 236.62,63.352 238,66.5C 241,65.1667 244,65.1667 247,66.5C 246.506,69.5343 245.672,72.5343 244.5,75.5C 250.241,76.4163 255.741,78.083 261,80.5C 262.356,79.6198 263.856,79.2865 265.5,79.5C 265.5,81.8333 265.5,84.1667 265.5,86.5C 269.717,86.2149 271.883,88.2149 272,92.5C 272.833,91.5 273.667,90.5 274.5,89.5C 274.833,90.1667 275.167,90.8333 275.5,91.5C 274.246,93.3337 273.579,95.3337 273.5,97.5C 278.324,97.9053 282.99,97.9053 287.5,97.5C 287.5,99.8333 287.5,102.167 287.5,104.5C 289.833,104.5 292.167,104.5 294.5,104.5C 294.337,106.857 294.503,109.19 295,111.5C 294.97,108.639 295.803,106.305 297.5,104.5C 297.666,109.511 297.499,114.511 297,119.5C 296.722,120.416 296.222,121.082 295.5,121.5C 295.299,117.65 293.466,116.65 290,118.5C 289.751,117.376 289.251,116.376 288.5,115.5C 287.827,118.997 285.827,120.163 282.5,119C 284.5,118.333 285.833,117 286.5,115C 284.638,113.244 282.638,111.744 280.5,110.5C 279.311,109.571 277.978,109.238 276.5,109.5C 276.5,107.833 276.5,106.167 276.5,104.5C 275.07,104.421 273.736,104.754 272.5,105.5C 271.614,104.675 271.281,103.675 271.5,102.5C 270.325,102.719 269.325,102.386 268.5,101.5C 269.246,100.264 269.579,98.9305 269.5,97.5C 270.675,97.719 271.675,97.3857 272.5,96.5C 268.845,95.1896 265.511,93.5229 262.5,91.5C 262.5,90.5 262.5,89.5 262.5,88.5C 258.444,87.4126 254.444,86.0793 250.5,84.5C 249.376,83.086 248.376,81.586 247.5,80C 246.552,79.5172 245.552,79.3505 244.5,79.5C 244.44,74.9386 242.107,72.4386 237.5,72C 236.663,70.9887 236.33,69.8221 236.5,68.5C 231.807,66.4749 227.14,64.4749 222.5,62.5C 222.265,58.1965 219.931,56.5298 215.5,57.5C 215.5,56.5 215.5,55.5 215.5,54.5C 213.61,54.7035 212.11,54.0368 211,52.5C 210.586,52.9574 210.086,53.2907 209.5,53.5C 206.163,49.707 207.163,47.0403 212.5,45.5 Z"/></g>
<g><path style="opacity:1" fill="#4ac5e3" d="M 219.5,78.5 C 225.251,78.9359 230.584,80.6025 235.5,83.5C 237.912,82.1823 240.246,82.349 242.5,84C 240.75,85.7542 240.083,87.9208 240.5,90.5C 241.833,90.5 243.167,90.5 244.5,90.5C 244.5,91.8333 244.5,93.1667 244.5,94.5C 247.628,93.3819 250.628,93.5486 253.5,95C 254.833,96 254.833,97 253.5,98C 255.339,99.1316 257.339,99.9649 259.5,100.5C 260.429,101.689 260.762,103.022 260.5,104.5C 264.048,104.095 267.381,104.595 270.5,106C 269.74,107.441 269.074,108.941 268.5,110.5C 271.046,111.134 273.379,111.134 275.5,110.5C 276.758,112.648 276.758,114.815 275.5,117C 277.112,118.482 278.112,120.315 278.5,122.5C 280.467,122.261 282.301,122.594 284,123.5C 284.483,122.552 284.649,121.552 284.5,120.5C 285.5,120.5 286.5,120.5 287.5,120.5C 287.487,125.438 288.487,130.105 290.5,134.5C 288.869,137.423 287.536,140.423 286.5,143.5C 286.262,145.404 285.262,146.738 283.5,147.5C 283.771,145.179 283.104,143.179 281.5,141.5C 281.931,140.707 282.265,139.873 282.5,139C 280.539,137.62 278.539,136.286 276.5,135C 277.711,133.887 277.711,132.72 276.5,131.5C 274.807,130.772 273.307,129.772 272,128.5C 271.667,129.167 271.333,129.833 271,130.5C 266.626,127.647 263.459,124.314 261.5,120.5C 258.247,119.402 254.914,118.736 251.5,118.5C 251.146,116.459 251.146,114.626 251.5,113C 248.804,112.31 246.637,110.81 245,108.5C 244.667,108.833 244.333,109.167 244,109.5C 243.506,107.866 243.34,106.199 243.5,104.5C 242.167,104.5 240.833,104.5 239.5,104.5C 240.026,109.807 239.36,114.807 237.5,119.5C 237.001,122.264 235.335,123.931 232.5,124.5C 234.694,122.1 236.361,119.434 237.5,116.5C 238.645,112.689 238.812,108.689 238,104.5C 237.617,103.944 237.117,103.611 236.5,103.5C 235.512,102.205 234.512,100.872 233.5,99.5C 234.376,99.6309 235.043,99.2975 235.5,98.5C 234.639,96.0894 233.306,94.0894 231.5,92.5C 227.874,87.5389 223.874,82.8722 219.5,78.5 Z"/></g>
<g><path style="opacity:0.02" fill="#c5eff3" d="M 236.5,103.5 C 237.117,103.611 237.617,103.944 238,104.5C 238.812,108.689 238.645,112.689 237.5,116.5C 237.706,112.102 237.373,107.768 236.5,103.5 Z"/></g>
<g><path style="opacity:1" fill="#35c3ea" d="M 283.5,147.5 C 282.2,148.601 281.7,149.934 282,151.5C 290.552,157.542 297.052,165.209 301.5,174.5C 299.716,173.044 297.716,172.044 295.5,171.5C 295.649,172.552 295.483,173.552 295,174.5C 294.64,172.579 293.806,170.912 292.5,169.5C 293.603,169.002 294.603,168.669 295.5,168.5C 294.551,165.394 292.718,163.061 290,161.5C 287.467,163.896 286.967,163.229 288.5,159.5C 285.881,159.024 283.881,157.691 282.5,155.5C 281.914,155.709 281.414,156.043 281,156.5C 281.485,151.613 279.318,149.113 274.5,149C 273.809,147.933 273.309,146.766 273,145.5C 271.867,147.211 270.367,147.711 268.5,147C 266.372,145.333 265.039,143.166 264.5,140.5C 262.668,139.752 261.001,138.752 259.5,137.5C 256.73,139.988 255.063,139.154 254.5,135C 254.645,134.228 254.978,133.561 255.5,133C 254.228,131.693 253.228,130.193 252.5,128.5C 251.914,128.709 251.414,129.043 251,129.5C 249.066,126.312 246.232,124.812 242.5,125C 240.7,123.188 239.033,121.355 237.5,119.5C 239.36,114.807 240.026,109.807 239.5,104.5C 240.833,104.5 242.167,104.5 243.5,104.5C 243.34,106.199 243.506,107.866 244,109.5C 244.333,109.167 244.667,108.833 245,108.5C 246.637,110.81 248.804,112.31 251.5,113C 251.146,114.626 251.146,116.459 251.5,118.5C 254.914,118.736 258.247,119.402 261.5,120.5C 263.459,124.314 266.626,127.647 271,130.5C 271.333,129.833 271.667,129.167 272,128.5C 273.307,129.772 274.807,130.772 276.5,131.5C 277.711,132.72 277.711,133.887 276.5,135C 278.539,136.286 280.539,137.62 282.5,139C 282.265,139.873 281.931,140.707 281.5,141.5C 283.104,143.179 283.771,145.179 283.5,147.5 Z"/></g>
<g><path style="opacity:0.302" fill="#9cd0e9" d="M 225.5,127.5 C 225.5,128.167 225.167,128.5 224.5,128.5C 219.5,128.5 214.5,128.5 209.5,128.5C 199.167,128.5 188.833,128.5 178.5,128.5C 173.833,128.5 169.167,128.5 164.5,128.5C 154.145,128.168 143.812,128.501 133.5,129.5C 134.127,130.417 134.461,131.417 134.5,132.5C 132.5,131.357 131.833,129.857 132.5,128C 163.498,127.5 194.498,127.333 225.5,127.5 Z"/></g>
<g><path style="opacity:1" fill="#27baec" d="M 237.5,119.5 C 239.033,121.355 240.7,123.188 242.5,125C 246.232,124.812 249.066,126.312 251,129.5C 251.414,129.043 251.914,128.709 252.5,128.5C 253.228,130.193 254.228,131.693 255.5,133C 254.978,133.561 254.645,134.228 254.5,135C 255.063,139.154 256.73,139.988 259.5,137.5C 261.001,138.752 262.668,139.752 264.5,140.5C 265.039,143.166 266.372,145.333 268.5,147C 270.367,147.711 271.867,147.211 273,145.5C 273.309,146.766 273.809,147.933 274.5,149C 279.318,149.113 281.485,151.613 281,156.5C 281.414,156.043 281.914,155.709 282.5,155.5C 283.881,157.691 285.881,159.024 288.5,159.5C 286.967,163.229 287.467,163.896 290,161.5C 292.718,163.061 294.551,165.394 295.5,168.5C 294.603,168.669 293.603,169.002 292.5,169.5C 293.806,170.912 294.64,172.579 295,174.5C 295.483,173.552 295.649,172.552 295.5,171.5C 297.716,172.044 299.716,173.044 301.5,174.5C 304.254,178.695 305.921,183.362 306.5,188.5C 303.438,186.377 301.938,183.377 302,179.5C 298.926,181.635 295.759,181.469 292.5,179C 290.403,176.447 288.07,174.114 285.5,172C 276.368,166.121 267.701,159.787 259.5,153C 259.833,152.667 260.167,152.333 260.5,152C 256.889,151.223 253.222,149.723 249.5,147.5C 244.577,143.919 239.91,139.919 235.5,135.5C 231.889,133.088 228.056,132.421 224,133.5C 221.375,132.012 218.542,131.178 215.5,131C 218.992,131.07 221.992,130.237 224.5,128.5C 225.167,128.5 225.5,128.167 225.5,127.5C 227.649,126.264 229.982,125.264 232.5,124.5C 235.335,123.931 237.001,122.264 237.5,119.5 Z"/></g>
<g><path style="opacity:1" fill="#3d8cca" d="M 164.5,128.5 C 162.695,130.197 160.361,131.03 157.5,131C 159.594,132.352 161.927,132.852 164.5,132.5C 166.498,137.503 170.165,140.169 175.5,140.5C 175.448,143.537 176.448,146.204 178.5,148.5C 180.987,148.218 183.653,148.218 186.5,148.5C 186.238,149.978 186.571,151.311 187.5,152.5C 189.758,154.083 191.592,156.083 193,158.5C 193.308,157.692 193.808,157.025 194.5,156.5C 195.988,158.271 197.821,159.604 200,160.5C 201.009,162.025 201.509,163.692 201.5,165.5C 204.526,163.966 206.859,164.8 208.5,168C 213.968,168.778 217.968,171.612 220.5,176.5C 218.262,177.537 215.929,177.703 213.5,177C 209.536,175.738 205.536,174.404 201.5,173C 199.606,171.921 199.273,170.587 200.5,169C 197.039,167.769 193.706,166.269 190.5,164.5C 185.645,160.568 180.978,156.401 176.5,152C 172.896,149.708 168.896,148.208 164.5,147.5C 164.256,144.737 162.923,142.571 160.5,141C 155.494,137.83 150.161,135.33 144.5,133.5C 143.833,133.833 143.167,134.167 142.5,134.5C 143.773,136.984 143.773,139.484 142.5,142C 143.707,143.3 144.374,144.8 144.5,146.5C 140.688,142.223 137.355,137.557 134.5,132.5C 134.461,131.417 134.127,130.417 133.5,129.5C 143.812,128.501 154.145,128.168 164.5,128.5 Z"/></g>
<g><path style="opacity:1" fill="#35a4db" d="M 178.5,128.5 C 188.833,128.5 199.167,128.5 209.5,128.5C 208.048,129.302 206.382,129.802 204.5,130C 205.833,130.667 207.167,131.333 208.5,132C 207.5,132.333 206.5,132.667 205.5,133C 210.069,135.523 214.736,137.857 219.5,140C 219.167,140.333 218.833,140.667 218.5,141C 220,141.833 221.167,143 222,144.5C 222.414,144.043 222.914,143.709 223.5,143.5C 225.585,144.541 227.252,146.041 228.5,148C 231.901,147.734 233.567,149.234 233.5,152.5C 237.354,152.594 240.021,154.428 241.5,158C 243.246,158.471 244.913,159.138 246.5,160C 249.21,163.872 252.876,166.372 257.5,167.5C 259.651,168.905 261.318,170.739 262.5,173C 266.658,172.922 268.991,174.922 269.5,179C 275.683,181.41 280.683,185.243 284.5,190.5C 285.325,191.386 286.325,191.719 287.5,191.5C 287.667,188.043 288.667,187.71 290.5,190.5C 289.975,191.192 289.308,191.692 288.5,192C 292.21,194.854 296.21,197.187 300.5,199C 301.47,201.565 302.804,203.732 304.5,205.5C 305.765,206.514 306.431,208.014 306.5,210C 306.492,211.707 306.158,213.207 305.5,214.5C 303.598,209.378 299.931,206.378 294.5,205.5C 294.5,204.5 294.5,203.5 294.5,202.5C 293.5,202.5 292.5,202.5 291.5,202.5C 291.64,200.876 290.973,199.71 289.5,199C 290.993,197.844 290.826,197.01 289,196.5C 287.699,197.893 286.199,198.393 284.5,198C 283.08,195.791 281.413,193.791 279.5,192C 276.554,191.194 273.888,189.861 271.5,188C 271.833,187.667 272.167,187.333 272.5,187C 269.553,186.888 268.22,185.388 268.5,182.5C 264.674,182.203 261.674,180.37 259.5,177C 253.747,173.769 248.08,170.269 242.5,166.5C 240.588,164.343 238.921,162.009 237.5,159.5C 232.6,160.959 229.6,159.125 228.5,154C 226.413,153.208 224.579,152.041 223,150.5C 222.667,150.833 222.333,151.167 222,151.5C 213.748,145.001 205.248,139.001 196.5,133.5C 192.688,132.676 188.688,132.176 184.5,132C 182.242,131.124 180.242,129.957 178.5,128.5 Z"/></g>
<g><path style="opacity:1" fill="#3b86c6" d="M 220.5,176.5 C 221.833,176.5 222.5,177.167 222.5,178.5C 212.833,178.5 203.167,178.5 193.5,178.5C 195.631,177.686 197.964,177.186 200.5,177C 198.167,176.667 195.833,176.333 193.5,176C 192.5,174.333 191.5,172.667 190.5,171C 188.392,170.64 186.392,169.973 184.5,169C 178.126,163.316 171.459,157.983 164.5,153C 159.801,149.588 154.801,146.754 149.5,144.5C 149.657,145.873 149.49,147.207 149,148.5C 148.346,147.304 147.846,147.304 147.5,148.5C 148.246,149.736 148.579,151.07 148.5,152.5C 146.674,150.853 145.34,148.853 144.5,146.5C 144.374,144.8 143.707,143.3 142.5,142C 143.773,139.484 143.773,136.984 142.5,134.5C 143.167,134.167 143.833,133.833 144.5,133.5C 150.161,135.33 155.494,137.83 160.5,141C 162.923,142.571 164.256,144.737 164.5,147.5C 168.896,148.208 172.896,149.708 176.5,152C 180.978,156.401 185.645,160.568 190.5,164.5C 193.706,166.269 197.039,167.769 200.5,169C 199.273,170.587 199.606,171.921 201.5,173C 205.536,174.404 209.536,175.738 213.5,177C 215.929,177.703 218.262,177.537 220.5,176.5 Z"/></g>
<g><path style="opacity:1" fill="#3e7ec0" d="M 193.5,178.5 C 184.833,178.5 176.167,178.5 167.5,178.5C 167.512,175.858 166.179,174.525 163.5,174.5C 162.075,173.078 161.075,171.411 160.5,169.5C 160.657,168.127 160.49,166.793 160,165.5C 156.031,163.566 154.865,160.566 156.5,156.5C 156.167,156.167 155.833,155.833 155.5,155.5C 153.781,158.048 152.448,157.715 151.5,154.5C 150.583,153.873 149.583,153.539 148.5,153.5C 148.5,153.167 148.5,152.833 148.5,152.5C 148.579,151.07 148.246,149.736 147.5,148.5C 147.846,147.304 148.346,147.304 149,148.5C 149.49,147.207 149.657,145.873 149.5,144.5C 154.801,146.754 159.801,149.588 164.5,153C 171.459,157.983 178.126,163.316 184.5,169C 186.392,169.973 188.392,170.64 190.5,171C 191.5,172.667 192.5,174.333 193.5,176C 195.833,176.333 198.167,176.667 200.5,177C 197.964,177.186 195.631,177.686 193.5,178.5 Z"/></g>
<g><path style="opacity:1" fill="#389dd7" d="M 196.5,133.5 C 205.248,139.001 213.748,145.001 222,151.5C 222.333,151.167 222.667,150.833 223,150.5C 224.579,152.041 226.413,153.208 228.5,154C 229.6,159.125 232.6,160.959 237.5,159.5C 238.921,162.009 240.588,164.343 242.5,166.5C 248.08,170.269 253.747,173.769 259.5,177C 261.674,180.37 264.674,182.203 268.5,182.5C 268.22,185.388 269.553,186.888 272.5,187C 272.167,187.333 271.833,187.667 271.5,188C 273.888,189.861 276.554,191.194 279.5,192C 281.413,193.791 283.08,195.791 284.5,198C 286.199,198.393 287.699,197.893 289,196.5C 290.826,197.01 290.993,197.844 289.5,199C 290.973,199.71 291.64,200.876 291.5,202.5C 292.5,202.5 293.5,202.5 294.5,202.5C 294.5,203.5 294.5,204.5 294.5,205.5C 299.931,206.378 303.598,209.378 305.5,214.5C 304.725,218.814 304.059,223.147 303.5,227.5C 303.128,231.297 301.794,234.63 299.5,237.5C 299.825,232.931 300.658,228.598 302,224.5C 299.38,225.226 296.88,224.726 294.5,223C 296.751,223.207 299.085,223.373 301.5,223.5C 301.12,219.934 299.12,217.601 295.5,216.5C 294.614,215.675 294.281,214.675 294.5,213.5C 292.005,212.801 289.672,211.801 287.5,210.5C 287.5,209.5 287.5,208.5 287.5,207.5C 285.396,207.799 283.396,207.466 281.5,206.5C 282.025,205.808 282.692,205.308 283.5,205C 280.064,203.224 276.397,202.224 272.5,202C 271.5,199.667 270.5,197.333 269.5,195C 265.749,193.89 262.083,192.724 258.5,191.5C 258.5,189.833 258.5,188.167 258.5,186.5C 255.881,186.232 253.381,186.565 251,187.5C 250.383,186.551 250.549,185.718 251.5,185C 248.953,180.726 245.287,177.892 240.5,176.5C 237.952,174.578 235.952,172.245 234.5,169.5C 230.601,171.443 228.268,170.276 227.5,166C 226.552,165.517 225.552,165.351 224.5,165.5C 224.723,162.034 223.389,161.034 220.5,162.5C 219.09,162.132 218.09,161.299 217.5,160C 218.833,159 218.833,158 217.5,157C 218.167,156.333 218.833,155.667 219.5,155C 215.27,153.868 211.603,151.701 208.5,148.5C 207.754,147.264 207.421,145.93 207.5,144.5C 205.5,143.833 203.5,143.167 201.5,142.5C 201.649,143.552 201.483,144.552 201,145.5C 199.836,143.351 198.67,141.185 197.5,139C 193.942,137.054 190.275,135.387 186.5,134C 189.817,133.502 193.15,133.335 196.5,133.5 Z"/></g>
<g><path style="opacity:0.91" fill="#6b94c2" d="M 148.5,153.5 C 149.583,153.539 150.583,153.873 151.5,154.5C 152.448,157.715 153.781,158.048 155.5,155.5C 155.833,155.833 156.167,156.167 156.5,156.5C 154.865,160.566 156.031,163.566 160,165.5C 160.49,166.793 160.657,168.127 160.5,169.5C 156.147,164.473 152.147,159.14 148.5,153.5 Z"/></g>
<g><path style="opacity:1" fill="#2daee4" d="M 209.5,128.5 C 214.5,128.5 219.5,128.5 224.5,128.5C 221.992,130.237 218.992,131.07 215.5,131C 218.542,131.178 221.375,132.012 224,133.5C 228.056,132.421 231.889,133.088 235.5,135.5C 239.91,139.919 244.577,143.919 249.5,147.5C 253.222,149.723 256.889,151.223 260.5,152C 260.167,152.333 259.833,152.667 259.5,153C 267.701,159.787 276.368,166.121 285.5,172C 288.07,174.114 290.403,176.447 292.5,179C 295.759,181.469 298.926,181.635 302,179.5C 301.938,183.377 303.438,186.377 306.5,188.5C 306.221,194.222 305.555,199.889 304.5,205.5C 302.804,203.732 301.47,201.565 300.5,199C 296.21,197.187 292.21,194.854 288.5,192C 289.308,191.692 289.975,191.192 290.5,190.5C 288.667,187.71 287.667,188.043 287.5,191.5C 286.325,191.719 285.325,191.386 284.5,190.5C 280.683,185.243 275.683,181.41 269.5,179C 268.991,174.922 266.658,172.922 262.5,173C 261.318,170.739 259.651,168.905 257.5,167.5C 252.876,166.372 249.21,163.872 246.5,160C 244.913,159.138 243.246,158.471 241.5,158C 240.021,154.428 237.354,152.594 233.5,152.5C 233.567,149.234 231.901,147.734 228.5,148C 227.252,146.041 225.585,144.541 223.5,143.5C 222.914,143.709 222.414,144.043 222,144.5C 221.167,143 220,141.833 218.5,141C 218.833,140.667 219.167,140.333 219.5,140C 214.736,137.857 210.069,135.523 205.5,133C 206.5,132.667 207.5,132.333 208.5,132C 207.167,131.333 205.833,130.667 204.5,130C 206.382,129.802 208.048,129.302 209.5,128.5 Z"/></g>
<g><path style="opacity:0.563" fill="#5385b2" d="M 163.5,174.5 C 166.179,174.525 167.512,175.858 167.5,178.5C 176.167,178.5 184.833,178.5 193.5,178.5C 203.167,178.5 212.833,178.5 222.5,178.5C 222.5,178.833 222.5,179.167 222.5,179.5C 203.83,179.667 185.164,179.5 166.5,179C 165.614,177.385 164.614,175.885 163.5,174.5 Z"/></g>
<g><path style="opacity:1" fill="#3996d1" d="M 164.5,128.5 C 169.167,128.5 173.833,128.5 178.5,128.5C 180.242,129.957 182.242,131.124 184.5,132C 188.688,132.176 192.688,132.676 196.5,133.5C 193.15,133.335 189.817,133.502 186.5,134C 190.275,135.387 193.942,137.054 197.5,139C 198.67,141.185 199.836,143.351 201,145.5C 201.483,144.552 201.649,143.552 201.5,142.5C 203.5,143.167 205.5,143.833 207.5,144.5C 207.421,145.93 207.754,147.264 208.5,148.5C 211.603,151.701 215.27,153.868 219.5,155C 218.833,155.667 218.167,156.333 217.5,157C 218.833,158 218.833,159 217.5,160C 218.09,161.299 219.09,162.132 220.5,162.5C 223.389,161.034 224.723,162.034 224.5,165.5C 225.552,165.351 226.552,165.517 227.5,166C 228.268,170.276 230.601,171.443 234.5,169.5C 235.952,172.245 237.952,174.578 240.5,176.5C 245.287,177.892 248.953,180.726 251.5,185C 250.549,185.718 250.383,186.551 251,187.5C 253.381,186.565 255.881,186.232 258.5,186.5C 258.5,188.167 258.5,189.833 258.5,191.5C 262.083,192.724 265.749,193.89 269.5,195C 270.5,197.333 271.5,199.667 272.5,202C 276.397,202.224 280.064,203.224 283.5,205C 282.692,205.308 282.025,205.808 281.5,206.5C 283.396,207.466 285.396,207.799 287.5,207.5C 287.5,208.5 287.5,209.5 287.5,210.5C 289.672,211.801 292.005,212.801 294.5,213.5C 294.281,214.675 294.614,215.675 295.5,216.5C 299.12,217.601 301.12,219.934 301.5,223.5C 299.085,223.373 296.751,223.207 294.5,223C 296.88,224.726 299.38,225.226 302,224.5C 300.658,228.598 299.825,232.931 299.5,237.5C 298.974,239.23 297.974,240.564 296.5,241.5C 296.579,239.334 297.246,237.334 298.5,235.5C 297.315,233.289 296.315,230.955 295.5,228.5C 292.914,227.52 290.247,227.187 287.5,227.5C 287.414,225.323 286.747,223.323 285.5,221.5C 279.367,217.838 273.033,214.504 266.5,211.5C 265.691,209.929 265.357,208.262 265.5,206.5C 263.473,206.662 261.473,206.495 259.5,206C 260.167,205.667 260.833,205.333 261.5,205C 259.334,202.612 256.668,201.112 253.5,200.5C 252.353,200.818 251.519,201.484 251,202.5C 250.667,200.167 250.333,197.833 250,195.5C 249.617,194.944 249.117,194.611 248.5,194.5C 247.963,191.964 246.63,189.964 244.5,188.5C 238.876,181.698 231.543,178.698 222.5,179.5C 222.5,179.167 222.5,178.833 222.5,178.5C 222.5,177.167 221.833,176.5 220.5,176.5C 217.968,171.612 213.968,168.778 208.5,168C 206.859,164.8 204.526,163.966 201.5,165.5C 201.509,163.692 201.009,162.025 200,160.5C 197.821,159.604 195.988,158.271 194.5,156.5C 193.808,157.025 193.308,157.692 193,158.5C 191.592,156.083 189.758,154.083 187.5,152.5C 186.571,151.311 186.238,149.978 186.5,148.5C 183.653,148.218 180.987,148.218 178.5,148.5C 176.448,146.204 175.448,143.537 175.5,140.5C 170.165,140.169 166.498,137.503 164.5,132.5C 161.927,132.852 159.594,132.352 157.5,131C 160.361,131.03 162.695,130.197 164.5,128.5 Z"/></g>
<g><path style="opacity:1" fill="#63b7dd" d="M 306.5,188.5 C 307.302,189.952 307.802,191.618 308,193.5C 309.424,205.357 307.924,216.69 303.5,227.5C 304.059,223.147 304.725,218.814 305.5,214.5C 306.158,213.207 306.492,211.707 306.5,210C 306.431,208.014 305.765,206.514 304.5,205.5C 305.555,199.889 306.221,194.222 306.5,188.5 Z"/></g>
<g><path style="opacity:1" fill="#3c8cca" d="M 248.5,194.5 C 249.117,194.611 249.617,194.944 250,195.5C 250.333,197.833 250.667,200.167 251,202.5C 251.519,201.484 252.353,200.818 253.5,200.5C 256.668,201.112 259.334,202.612 261.5,205C 260.833,205.333 260.167,205.667 259.5,206C 261.473,206.495 263.473,206.662 265.5,206.5C 265.357,208.262 265.691,209.929 266.5,211.5C 273.033,214.504 279.367,217.838 285.5,221.5C 286.747,223.323 287.414,225.323 287.5,227.5C 290.247,227.187 292.914,227.52 295.5,228.5C 296.315,230.955 297.315,233.289 298.5,235.5C 297.246,237.334 296.579,239.334 296.5,241.5C 295.557,244.109 293.89,246.109 291.5,247.5C 291.785,245.712 291.452,244.045 290.5,242.5C 289.749,243.376 289.249,244.376 289,245.5C 287.887,244.24 287.72,243.073 288.5,242C 287.833,241.667 287.167,241.333 286.5,241C 287.591,238.936 287.758,236.769 287,234.5C 284.248,232.089 281.081,230.255 277.5,229C 276.91,227.491 276.244,225.991 275.5,224.5C 273.081,221.961 270.081,220.461 266.5,220C 264.081,217.773 261.581,215.606 259,213.5C 258.667,213.833 258.333,214.167 258,214.5C 254.975,212.593 252.308,210.259 250,207.5C 249.28,209.112 249.446,210.612 250.5,212C 249.207,212.49 247.873,212.657 246.5,212.5C 246.217,211.711 245.717,211.044 245,210.5C 243.27,212.402 241.437,214.069 239.5,215.5C 238.167,215.5 236.833,215.5 235.5,215.5C 234.833,215.5 234.167,215.5 233.5,215.5C 237.729,213.604 241.396,210.937 244.5,207.5C 246.335,206.878 247.502,205.544 248,203.5C 248.498,200.518 248.665,197.518 248.5,194.5 Z"/></g>
<g><path style="opacity:0.639" fill="#7fb0cf" d="M 244.5,188.5 C 246.63,189.964 247.963,191.964 248.5,194.5C 248.665,197.518 248.498,200.518 248,203.5C 247.502,205.544 246.335,206.878 244.5,207.5C 247.105,201.194 247.105,194.861 244.5,188.5 Z"/></g>
<g><path style="opacity:1" fill="#3b85c6" d="M 291.5,247.5 C 290.833,248.833 289.833,249.833 288.5,250.5C 287.118,247.279 284.785,244.779 281.5,243C 281.833,242.667 282.167,242.333 282.5,242C 280.527,241.505 278.527,241.338 276.5,241.5C 276.5,239.167 276.5,236.833 276.5,234.5C 272.437,231.623 268.104,228.957 263.5,226.5C 262.614,225.675 262.281,224.675 262.5,223.5C 257.802,223.476 254.969,221.143 254,216.5C 250.495,217.401 247.995,216.068 246.5,212.5C 247.873,212.657 249.207,212.49 250.5,212C 249.446,210.612 249.28,209.112 250,207.5C 252.308,210.259 254.975,212.593 258,214.5C 258.333,214.167 258.667,213.833 259,213.5C 261.581,215.606 264.081,217.773 266.5,220C 270.081,220.461 273.081,221.961 275.5,224.5C 276.244,225.991 276.91,227.491 277.5,229C 281.081,230.255 284.248,232.089 287,234.5C 287.758,236.769 287.591,238.936 286.5,241C 287.167,241.333 287.833,241.667 288.5,242C 287.72,243.073 287.887,244.24 289,245.5C 289.249,244.376 289.749,243.376 290.5,242.5C 291.452,244.045 291.785,245.712 291.5,247.5 Z"/></g>
<g><path style="opacity:0.68" fill="#8faacb" d="M 124.5,216.5 C 160.663,215.502 196.996,215.168 233.5,215.5C 234.167,215.5 234.833,215.5 235.5,215.5C 235.611,216.117 235.944,216.617 236.5,217C 235.207,217.49 233.873,217.657 232.5,217.5C 226.833,217.5 221.167,217.5 215.5,217.5C 185.172,216.812 154.838,216.479 124.5,216.5 Z"/></g>
<g><path style="opacity:1" fill="#3f74b8" d="M 215.5,217.5 C 221.167,217.5 226.833,217.5 232.5,217.5C 229.359,218.321 226.025,218.821 222.5,219C 224.81,219.497 227.143,219.663 229.5,219.5C 229.33,220.822 229.663,221.989 230.5,223C 233.833,224 237.167,225 240.5,226C 240.966,227.299 240.966,228.799 240.5,230.5C 243.5,230.167 244.833,231.5 244.5,234.5C 246.833,234.5 249.167,234.5 251.5,234.5C 251.92,238.558 254.253,240.558 258.5,240.5C 260.503,242.133 261.836,244.133 262.5,246.5C 263.93,246.579 265.264,246.246 266.5,245.5C 267.738,247.637 269.571,248.971 272,249.5C 272.309,250.766 272.809,251.933 273.5,253C 276.823,253.932 279.823,253.432 282.5,251.5C 282.414,252.496 282.748,253.329 283.5,254C 281.5,254.333 279.5,254.667 277.5,255C 278.308,255.308 278.975,255.808 279.5,256.5C 278.23,257.288 277.23,258.288 276.5,259.5C 274.62,259.229 273.287,259.896 272.5,261.5C 263.189,266.33 253.189,268.996 242.5,269.5C 244.031,268.075 243.698,267.409 241.5,267.5C 245.329,267.553 249.329,267.22 253.5,266.5C 252.975,265.808 252.308,265.308 251.5,265C 252.416,264.722 253.082,264.222 253.5,263.5C 255.167,263.5 256.833,263.5 258.5,263.5C 257.855,259.322 255.688,255.989 252,253.5C 251.517,252.552 251.351,251.552 251.5,250.5C 250.167,250.5 248.833,250.5 247.5,250.5C 247.5,251.5 247.5,252.5 247.5,253.5C 246.5,253.5 245.5,253.5 244.5,253.5C 244.306,250.67 243.639,248.004 242.5,245.5C 240.833,245.5 239.167,245.5 237.5,245.5C 238.835,239.471 236.502,236.804 230.5,237.5C 230.271,229.882 226.605,227.549 219.5,230.5C 219.579,229.07 219.246,227.736 218.5,226.5C 216.577,225.692 214.577,225.192 212.5,225C 211.833,223.667 211.167,222.333 210.5,221C 212.76,220.451 214.426,219.284 215.5,217.5 Z"/></g>
<g><path style="opacity:1" fill="#3c67b0" d="M 253.5,263.5 C 253.082,264.222 252.416,264.722 251.5,265C 252.308,265.308 252.975,265.808 253.5,266.5C 249.329,267.22 245.329,267.553 241.5,267.5C 238.041,267.469 234.708,266.802 231.5,265.5C 228.562,266.575 225.562,266.741 222.5,266C 229.786,264.723 237.119,264.389 244.5,265C 237.214,263.814 229.881,263.314 222.5,263.5C 222.5,262.5 222.5,261.5 222.5,260.5C 221.167,260.5 219.833,260.5 218.5,260.5C 218.5,259.167 218.5,257.833 218.5,256.5C 213.963,256.036 210.963,253.703 209.5,249.5C 206.813,249.664 204.146,249.497 201.5,249C 200.594,247.301 200.261,245.467 200.5,243.5C 195.831,241.967 191.164,240.301 186.5,238.5C 186.5,237.167 186.5,235.833 186.5,234.5C 183.833,234.5 181.167,234.5 178.5,234.5C 178.007,232.194 177.674,229.861 177.5,227.5C 173.469,225.898 169.136,224.732 164.5,224C 166.833,223.667 169.167,223.333 171.5,223C 169.881,222.764 168.881,221.931 168.5,220.5C 168.5,220.167 168.5,219.833 168.5,219.5C 175.858,219.684 183.191,219.35 190.5,218.5C 191.833,218.833 193.167,219.167 194.5,219.5C 193.754,220.736 193.421,222.07 193.5,223.5C 195.833,223.5 198.167,223.5 200.5,223.5C 200.5,224.833 200.5,226.167 200.5,227.5C 205.854,226.946 208.521,229.279 208.5,234.5C 209.5,234.5 210.5,234.5 211.5,234.5C 211.5,235.5 211.5,236.5 211.5,237.5C 212.833,237.5 214.167,237.5 215.5,237.5C 215.5,238.833 215.5,240.167 215.5,241.5C 217.833,241.5 220.167,241.5 222.5,241.5C 222.5,242.833 222.5,244.167 222.5,245.5C 223.5,245.5 224.5,245.5 225.5,245.5C 225.833,249.5 226.167,249.5 226.5,245.5C 227.5,245.5 228.5,245.5 229.5,245.5C 229.167,248.5 230.5,249.833 233.5,249.5C 233.5,250.5 233.5,251.5 233.5,252.5C 234.833,252.5 236.167,252.5 237.5,252.5C 237.5,253.5 237.5,254.5 237.5,255.5C 241.43,253.966 243.763,255.299 244.5,259.5C 243.127,259.343 241.793,259.51 240.5,260C 244.648,261.883 248.981,263.05 253.5,263.5 Z"/></g>
<g><path style="opacity:1" fill="#3d5daa" d="M 168.5,219.5 C 168.5,219.833 168.5,220.167 168.5,220.5C 162.5,220.5 156.5,220.5 150.5,220.5C 150.439,225.791 152.773,227.458 157.5,225.5C 157.5,227.167 157.5,228.833 157.5,230.5C 159.927,230.523 162.26,231.023 164.5,232C 166.416,233.817 168.749,234.984 171.5,235.5C 167.689,236.738 167.689,237.404 171.5,237.5C 171.351,238.552 171.517,239.552 172,240.5C 174.041,239.577 176.208,239.244 178.5,239.5C 178.5,240.5 178.5,241.5 178.5,242.5C 177.448,242.351 176.448,242.517 175.5,243C 178.8,245.443 182.467,247.276 186.5,248.5C 185.675,249.386 184.675,249.719 183.5,249.5C 183.5,250.5 183.5,251.5 183.5,252.5C 189.222,252.779 194.889,253.445 200.5,254.5C 200.5,256.167 200.5,257.833 200.5,259.5C 199.448,259.351 198.448,259.517 197.5,260C 199.536,260.454 201.37,261.287 203,262.5C 205.424,260.839 207.258,261.339 208.5,264C 170.501,264.5 132.501,264.667 94.5,264.5C 94.6287,262.784 94.962,261.117 95.5,259.5C 96.9063,259.027 97.573,258.027 97.5,256.5C 97.7497,254.326 98.7497,252.659 100.5,251.5C 101.906,251.027 102.573,250.027 102.5,248.5C 103.906,248.027 104.573,247.027 104.5,245.5C 106.759,244.656 107.759,242.989 107.5,240.5C 108.906,240.027 109.573,239.027 109.5,237.5C 110.906,237.027 111.573,236.027 111.5,234.5C 112.906,234.027 113.573,233.027 113.5,231.5C 114.906,231.027 115.573,230.027 115.5,228.5C 116.906,228.027 117.573,227.027 117.5,225.5C 118.906,225.027 119.573,224.027 119.5,222.5C 120.906,222.027 121.573,221.027 121.5,219.5C 122.289,219.217 122.956,218.717 123.5,218C 128.5,217.833 133.5,217.667 138.5,217.5C 146.515,218.936 156.515,219.603 168.5,219.5 Z"/></g>
<g><path style="opacity:1" fill="#3c60ab" d="M 168.5,220.5 C 168.881,221.931 169.881,222.764 171.5,223C 169.167,223.333 166.833,223.667 164.5,224C 169.136,224.732 173.469,225.898 177.5,227.5C 177.674,229.861 178.007,232.194 178.5,234.5C 181.167,234.5 183.833,234.5 186.5,234.5C 186.5,235.833 186.5,237.167 186.5,238.5C 191.164,240.301 195.831,241.967 200.5,243.5C 200.261,245.467 200.594,247.301 201.5,249C 204.146,249.497 206.813,249.664 209.5,249.5C 210.963,253.703 213.963,256.036 218.5,256.5C 218.5,257.833 218.5,259.167 218.5,260.5C 219.833,260.5 221.167,260.5 222.5,260.5C 222.5,261.5 222.5,262.5 222.5,263.5C 229.881,263.314 237.214,263.814 244.5,265C 237.119,264.389 229.786,264.723 222.5,266C 225.562,266.741 228.562,266.575 231.5,265.5C 234.708,266.802 238.041,267.469 241.5,267.5C 243.698,267.409 244.031,268.075 242.5,269.5C 241.833,269.5 241.167,269.5 240.5,269.5C 190.496,269.833 140.496,269.5 90.5,268.5C 90.6236,267.893 90.9569,267.56 91.5,267.5C 131.665,268.665 171.998,268.831 212.5,268C 211.737,267.056 210.737,266.556 209.5,266.5C 170.909,266.531 132.242,266.531 93.5,266.5C 93.8333,265.833 94.1667,265.167 94.5,264.5C 132.501,264.667 170.501,264.5 208.5,264C 207.258,261.339 205.424,260.839 203,262.5C 201.37,261.287 199.536,260.454 197.5,260C 198.448,259.517 199.448,259.351 200.5,259.5C 200.5,257.833 200.5,256.167 200.5,254.5C 194.889,253.445 189.222,252.779 183.5,252.5C 183.5,251.5 183.5,250.5 183.5,249.5C 184.675,249.719 185.675,249.386 186.5,248.5C 182.467,247.276 178.8,245.443 175.5,243C 176.448,242.517 177.448,242.351 178.5,242.5C 178.5,241.5 178.5,240.5 178.5,239.5C 176.208,239.244 174.041,239.577 172,240.5C 171.517,239.552 171.351,238.552 171.5,237.5C 167.689,237.404 167.689,236.738 171.5,235.5C 168.749,234.984 166.416,233.817 164.5,232C 162.26,231.023 159.927,230.523 157.5,230.5C 157.5,228.833 157.5,227.167 157.5,225.5C 152.773,227.458 150.439,225.791 150.5,220.5C 156.5,220.5 162.5,220.5 168.5,220.5 Z"/></g>
<g><path style="opacity:0.216" fill="#8e9fc2" d="M 121.5,219.5 C 121.573,221.027 120.906,222.027 119.5,222.5C 119.427,220.973 120.094,219.973 121.5,219.5 Z"/></g>
<g><path style="opacity:0.196" fill="#90a8c7" d="M 119.5,222.5 C 119.573,224.027 118.906,225.027 117.5,225.5C 117.427,223.973 118.094,222.973 119.5,222.5 Z"/></g>
<g><path style="opacity:1" fill="#3c79bd" d="M 235.5,215.5 C 236.833,215.5 238.167,215.5 239.5,215.5C 240.014,216.625 240.347,217.791 240.5,219C 239.5,219.333 238.5,219.667 237.5,220C 239.81,220.497 242.143,220.663 244.5,220.5C 244.5,221.5 244.5,222.5 244.5,223.5C 247.578,224.202 250.578,225.202 253.5,226.5C 252.975,227.192 252.308,227.692 251.5,228C 254.167,228.333 256.833,228.667 259.5,229C 261.155,230.444 261.822,232.278 261.5,234.5C 262.833,234.5 264.167,234.5 265.5,234.5C 264.604,239.384 266.604,242.051 271.5,242.5C 272.786,242.148 273.619,241.482 274,240.5C 276.22,242.647 277.387,245.314 277.5,248.5C 279.664,248.721 281.33,249.721 282.5,251.5C 279.823,253.432 276.823,253.932 273.5,253C 272.809,251.933 272.309,250.766 272,249.5C 269.571,248.971 267.738,247.637 266.5,245.5C 265.264,246.246 263.93,246.579 262.5,246.5C 261.836,244.133 260.503,242.133 258.5,240.5C 254.253,240.558 251.92,238.558 251.5,234.5C 249.167,234.5 246.833,234.5 244.5,234.5C 244.833,231.5 243.5,230.167 240.5,230.5C 240.966,228.799 240.966,227.299 240.5,226C 237.167,225 233.833,224 230.5,223C 229.663,221.989 229.33,220.822 229.5,219.5C 227.143,219.663 224.81,219.497 222.5,219C 226.025,218.821 229.359,218.321 232.5,217.5C 233.873,217.657 235.207,217.49 236.5,217C 235.944,216.617 235.611,216.117 235.5,215.5 Z"/></g>
<g><path style="opacity:0.157" fill="#98afca" d="M 117.5,225.5 C 117.573,227.027 116.906,228.027 115.5,228.5C 115.427,226.973 116.094,225.973 117.5,225.5 Z"/></g>
<g><path style="opacity:1" fill="#4080c1" d="M 246.5,212.5 C 247.995,216.068 250.495,217.401 254,216.5C 254.969,221.143 257.802,223.476 262.5,223.5C 262.281,224.675 262.614,225.675 263.5,226.5C 268.104,228.957 272.437,231.623 276.5,234.5C 276.5,236.833 276.5,239.167 276.5,241.5C 278.527,241.338 280.527,241.505 282.5,242C 282.167,242.333 281.833,242.667 281.5,243C 284.785,244.779 287.118,247.279 288.5,250.5C 285.224,254.471 281.224,257.471 276.5,259.5C 277.23,258.288 278.23,257.288 279.5,256.5C 278.975,255.808 278.308,255.308 277.5,255C 279.5,254.667 281.5,254.333 283.5,254C 282.748,253.329 282.414,252.496 282.5,251.5C 281.33,249.721 279.664,248.721 277.5,248.5C 277.387,245.314 276.22,242.647 274,240.5C 273.619,241.482 272.786,242.148 271.5,242.5C 266.604,242.051 264.604,239.384 265.5,234.5C 264.167,234.5 262.833,234.5 261.5,234.5C 261.822,232.278 261.155,230.444 259.5,229C 256.833,228.667 254.167,228.333 251.5,228C 252.308,227.692 252.975,227.192 253.5,226.5C 250.578,225.202 247.578,224.202 244.5,223.5C 244.5,222.5 244.5,221.5 244.5,220.5C 242.143,220.663 239.81,220.497 237.5,220C 238.5,219.667 239.5,219.333 240.5,219C 240.347,217.791 240.014,216.625 239.5,215.5C 241.437,214.069 243.27,212.402 245,210.5C 245.717,211.044 246.217,211.711 246.5,212.5 Z"/></g>
<g><path style="opacity:0.169" fill="#a3b4d3" d="M 115.5,228.5 C 115.573,230.027 114.906,231.027 113.5,231.5C 113.427,229.973 114.094,228.973 115.5,228.5 Z"/></g>
<g><path style="opacity:1" fill="#3e6cb4" d="M 124.5,216.5 C 154.838,216.479 185.172,216.812 215.5,217.5C 214.426,219.284 212.76,220.451 210.5,221C 211.167,222.333 211.833,223.667 212.5,225C 214.577,225.192 216.577,225.692 218.5,226.5C 219.246,227.736 219.579,229.07 219.5,230.5C 226.605,227.549 230.271,229.882 230.5,237.5C 236.502,236.804 238.835,239.471 237.5,245.5C 239.167,245.5 240.833,245.5 242.5,245.5C 243.639,248.004 244.306,250.67 244.5,253.5C 245.5,253.5 246.5,253.5 247.5,253.5C 247.5,252.5 247.5,251.5 247.5,250.5C 248.833,250.5 250.167,250.5 251.5,250.5C 251.351,251.552 251.517,252.552 252,253.5C 255.688,255.989 257.855,259.322 258.5,263.5C 256.833,263.5 255.167,263.5 253.5,263.5C 248.981,263.05 244.648,261.883 240.5,260C 241.793,259.51 243.127,259.343 244.5,259.5C 243.763,255.299 241.43,253.966 237.5,255.5C 237.5,254.5 237.5,253.5 237.5,252.5C 236.167,252.5 234.833,252.5 233.5,252.5C 233.5,251.5 233.5,250.5 233.5,249.5C 230.5,249.833 229.167,248.5 229.5,245.5C 228.5,245.5 227.5,245.5 226.5,245.5C 226.167,249.5 225.833,249.5 225.5,245.5C 224.5,245.5 223.5,245.5 222.5,245.5C 222.5,244.167 222.5,242.833 222.5,241.5C 220.167,241.5 217.833,241.5 215.5,241.5C 215.5,240.167 215.5,238.833 215.5,237.5C 214.167,237.5 212.833,237.5 211.5,237.5C 211.5,236.5 211.5,235.5 211.5,234.5C 210.5,234.5 209.5,234.5 208.5,234.5C 208.521,229.279 205.854,226.946 200.5,227.5C 200.5,226.167 200.5,224.833 200.5,223.5C 198.167,223.5 195.833,223.5 193.5,223.5C 193.421,222.07 193.754,220.736 194.5,219.5C 193.167,219.167 191.833,218.833 190.5,218.5C 183.191,219.35 175.858,219.684 168.5,219.5C 156.515,219.603 146.515,218.936 138.5,217.5C 133.5,217.667 128.5,217.833 123.5,218C 122.956,218.717 122.289,219.217 121.5,219.5C 121.5,217.5 122.5,216.5 124.5,216.5 Z"/></g>
<g><path style="opacity:0.169" fill="#a1b4d0" d="M 113.5,231.5 C 113.573,233.027 112.906,234.027 111.5,234.5C 111.427,232.973 112.094,231.973 113.5,231.5 Z"/></g>
<g><path style="opacity:0.188" fill="#a4b7d3" d="M 111.5,234.5 C 111.573,236.027 110.906,237.027 109.5,237.5C 109.427,235.973 110.094,234.973 111.5,234.5 Z"/></g>
<g><path style="opacity:0.141" fill="#abbeda" d="M 109.5,237.5 C 109.573,239.027 108.906,240.027 107.5,240.5C 107.427,238.973 108.094,237.973 109.5,237.5 Z"/></g>
<g><path style="opacity:0.882" fill="#778cba" d="M 107.5,240.5 C 107.759,242.989 106.759,244.656 104.5,245.5C 105.11,243.566 106.11,241.899 107.5,240.5 Z"/></g>
<g><path style="opacity:0.216" fill="#9ab0d2" d="M 104.5,245.5 C 104.573,247.027 103.906,248.027 102.5,248.5C 102.427,246.973 103.094,245.973 104.5,245.5 Z"/></g>
<g><path style="opacity:0.176" fill="#96b0cd" d="M 102.5,248.5 C 102.573,250.027 101.906,251.027 100.5,251.5C 100.427,249.973 101.094,248.973 102.5,248.5 Z"/></g>
<g><path style="opacity:0.294" fill="#8da3cd" d="M 97.5,256.5 C 97.573,258.027 96.9063,259.027 95.5,259.5C 95.427,257.973 96.0937,256.973 97.5,256.5 Z"/></g>
<g><path style="opacity:0.047" fill="#a1c7dd" d="M 276.5,259.5 C 275.486,260.674 274.153,261.34 272.5,261.5C 273.287,259.896 274.62,259.229 276.5,259.5 Z"/></g>
<g><path style="opacity:1" fill="#3c5cac" d="M 93.5,266.5 C 132.242,266.531 170.909,266.531 209.5,266.5C 210.737,266.556 211.737,267.056 212.5,268C 171.998,268.831 131.665,268.665 91.5,267.5C 91.8417,266.662 92.5084,266.328 93.5,266.5 Z"/></g>
<g><path style="opacity:0.426" fill="#6b88bc" d="M 95.5,259.5 C 94.962,261.117 94.6287,262.784 94.5,264.5C 94.1667,265.167 93.8333,265.833 93.5,266.5C 92.5084,266.328 91.8417,266.662 91.5,267.5C 90.9569,267.56 90.6236,267.893 90.5,268.5C 140.496,269.5 190.496,269.833 240.5,269.5C 190.336,270.499 140.003,270.832 89.5,270.5C 90.1917,266.116 92.1917,262.45 95.5,259.5 Z"/></g>
</svg>
